<svg
        width="64"
        height="64"
        viewBox="0 0 64 64"
        fill="none"
        xmlns="http://www.w3.org/2000/svg"
>
    <defs>
        <linearGradient id="childYellowGradient" x1="0%" y1="0%" x2="100%" y2="100%">
            <stop offset="0%" style="stop-color:#FFEB3B;stop-opacity:1" />
            <stop offset="100%" style="stop-color:#FFD700;stop-opacity:1" />
        </linearGradient>
        <linearGradient id="childBlueGradient" x1="0%" y1="0%" x2="100%" y2="100%">
            <stop offset="0%" style="stop-color:#87CEFA;stop-opacity:1" />
            <stop offset="100%" style="stop-color:#4682B4;stop-opacity:1" />
        </linearGradient>
    </defs>

    <rect x="0" y="0" width="64" height="64"  />

    <circle cx="20" cy="16" r="10" fill="url(#childYellowGradient)" />
    <rect x="14" y="26" width="12" height="20" fill="url(#childYellowGradient)" />
    <rect x="12" y="46" width="6" height="10" fill="url(#childYellowGradient)" />
    <rect x="22" y="46" width="6" height="10" fill="url(#childYellowGradient)" />
    <rect x="6" y="26" width="6" height="12" fill="url(#childYellowGradient)" />
    <rect x="26" y="26" width="6" height="12" fill="url(#childYellowGradient)" />

    <rect x="30" y="0" width="10" height="64" fill="none" />

    <circle cx="50" cy="16" r="10" fill="url(#childBlueGradient)" />
    <rect x="44" y="26" width="12" height="20" fill="url(#childBlueGradient)" />
    <rect x="42" y="46" width="6" height="10" fill="url(#childBlueGradient)" />
    <rect x="52" y="46" width="6" height="10" fill="url(#childBlueGradient)" />
    <rect x="38" y="26" width="6" height="12" fill="url(#childBlueGradient)" />
    <rect x="56" y="26" width="6" height="12" fill="url(#childBlueGradient)" />
</svg>
